<svg id="Layer_1" data-name="Layer 1" xmlns="http://www.w3.org/2000/svg" viewBox="0 0 198 150"><defs><style>.cls-1,.cls-4{fill:#262f6c;}.cls-2,.cls-3{fill:#fff;}.cls-2{fill-rule:evenodd;}.cls-4{font-size:16.16px;font-family:KohinoorBangla-Medium, Kohinoor Bangla;font-weight:500;letter-spacing:-0.03em;}</style></defs><rect class="cls-1" width="198" height="150" rx="30"/><path class="cls-2" d="M152.85,38.34s12.77.93,13.23,5.34,1.14,10.24,1.14,10.24.78,3.26-1.82,4.95c-2.6,2-19.39,6.9-37.74,6.9A624.91,624.91,0,0,1,46.32,61C37,59.39,30.84,58.48,30.71,54.71s.13-10,.13-10-.09-3.32,2.47-4.55a52.27,52.27,0,0,1,12.23-3.78s3.33-3.9,6-5.19,8.6-6,10.4-7.83,6-5.14,10.66-5.65c4.75-.9,33-1.8,52.39,2.31a35.21,35.21,0,0,1,11.3,4C142,27.18,147,29.21,152.85,38.34Z" transform="translate(0 0)"/><path class="cls-3" d="M46.32,63.6c-3.25-.54-6.11-1-8.46-1.54.25,3.5,3,41.41,4.61,47.61,1.7,6.5,4.54,15,13,16.4,10.06,1.7,66.24,9,79.24,6.5,5.42-.77,18.26,0,21.2-14.08,2.4-11.49,5.52-41.47,4.8-55a115.21,115.21,0,0,1-33.05,4.91A624.91,624.91,0,0,1,46.32,63.6Z" transform="translate(0 0)"/><path class="cls-1" d="M48.25,69.16c1,6.11,1.81,12.21,2.82,18.28s1.6,12,4.43,17.47c1.29,2.7,2.81,5.15,5,6.66,2.34,1.67,5.08,2,8,2.36,6,.74,12.19,1.33,18.31,1.87s12.29,1.16,18.32,1.54c2.65.08,5.68.21,7.92-1.31,4.63-3.25,4.69-10.4,5.68-15.66,1.25-9.14,2.06-18.33,2.62-27.55.48,6.16.46,12.35.33,18.54A127.66,127.66,0,0,1,120,110c-.95,5.42-4.35,10-10.1,10.72a36.7,36.7,0,0,1-4.91.24c-5.43-.18-13.07-.94-18.54-1.36-6.15-.61-12.28-1.21-18.45-2.1-3.18-.44-6.75-1.14-9.43-3.22s-4.48-5.1-5.73-8.12c-2.67-5.66-2.94-12.31-3.59-18.45s-.87-12.33-1-18.51Z" transform="translate(0 0)"/><text class="cls-4" transform="matrix(0.65, 0.05, 0, 1, 56.76, 92.35)">MAXTRA</text><path class="cls-1" d="M108.27,84.85l-8-.53a2.16,2.16,0,0,0-2.45,2.2V93.7a2.79,2.79,0,0,0,2.45,2.71l8,.84a2.17,2.17,0,0,0,2.46-2.2V87.56A2.79,2.79,0,0,0,108.27,84.85Zm.34,6.84a.44.44,0,0,1-.49.45l-2.9-.3V95.5a.44.44,0,0,1-.49.45l-.94-.1a.56.56,0,0,1-.49-.54V91.65l-2.91-.3a.56.56,0,0,1-.49-.54v-.94a.43.43,0,0,1,.49-.44l2.91.29V86.06a.43.43,0,0,1,.49-.44l.94.1a.55.55,0,0,1,.49.54v3.66l2.9.29a.56.56,0,0,1,.49.55Z" transform="translate(0 0)"/><path class="cls-1" d="M33.84,44.33c16,3.39,32.4,3.79,48.67,4.59,26.84.72,54.88,3.91,81.05-3.5A79.43,79.43,0,0,1,147.82,50c-16.18,3-32.72,2.69-49.09,2.15C82.39,51.36,66,50.64,49.79,48a99,99,0,0,1-15.95-3.7Z" transform="translate(0 0)"/></svg>