<?xml version="1.0" encoding="utf-8"?>
<!-- Generator: Adobe Illustrator 19.2.1, SVG Export Plug-In . SVG Version: 6.00 Build 0)  -->
<svg version="1.1" id="Your_Branding" xmlns="http://www.w3.org/2000/svg" xmlns:xlink="http://www.w3.org/1999/xlink" x="0px"
	 y="0px" viewBox="0 0 120 91" style="enable-background:new 0 0 120 91;" xml:space="preserve">
<style type="text/css">
	.st0{fill:#282D74;}
	
		.st1{fill-rule:evenodd;clip-rule:evenodd;fill:#FFFFFF;stroke:#FFFFFF;stroke-width:0.9486;stroke-linecap:round;stroke-linejoin:bevel;stroke-miterlimit:10;}
	.st2{display:none;}
	.st3{display:inline;fill:#FFFFFF;}
	.st4{display:inline;fill:#282D74;}
	.st5{display:none;fill-rule:evenodd;clip-rule:evenodd;fill:#FFFFFF;}
	.st6{display:inline;}
	.st7{fill:#FFFFFF;}
	.st8{fill:#FFFFFF;stroke:#282D74;stroke-width:1.5;stroke-miterlimit:10;}
	.st9{display:inline;fill-rule:evenodd;clip-rule:evenodd;fill:#FFFFFF;}
	.st10{display:none;fill:#FFFFFF;}
	.st11{font-family:'ArialRoundedMTBold';}
	.st12{font-size:22.354px;}
	.st13{display:inline;fill:none;stroke:#282D74;stroke-width:2;stroke-linecap:round;stroke-miterlimit:10;}
	.st14{display:inline;fill:none;stroke:#282D74;stroke-width:1.5;stroke-linecap:round;stroke-miterlimit:10;}
	.st15{display:inline;fill:none;stroke:#FFFFFF;stroke-width:3;stroke-miterlimit:10;}
	.st16{fill:#FFFFFF;stroke:#282D74;stroke-width:1.5;stroke-linejoin:round;stroke-miterlimit:10;}
	.st17{display:inline;fill:none;stroke:#FFFFFF;stroke-width:2;stroke-linecap:round;stroke-linejoin:round;stroke-miterlimit:10;}
	.st18{fill:none;stroke:#FFFFFF;stroke-width:3;stroke-linecap:round;stroke-linejoin:round;stroke-miterlimit:10;}
	.st19{display:inline;fill:none;stroke:#282D74;stroke-width:3;stroke-linecap:round;stroke-linejoin:round;stroke-miterlimit:10;}
	.st20{fill-rule:evenodd;clip-rule:evenodd;fill:#FFFFFF;}
	.st21{display:inline;fill:none;stroke:#FFFFFF;stroke-width:3;stroke-linecap:round;stroke-miterlimit:10;}
	.st22{display:none;fill:#FFFFFF;stroke:#FFFFFF;stroke-linecap:round;stroke-linejoin:round;stroke-miterlimit:10;}
	.st23{display:inline;fill:none;stroke:#FFFFFF;stroke-width:6;stroke-miterlimit:10;}
</style>
<g id="Great_Tasting_Water">
	<path class="st0" d="M120,65.2C120,79.4,108.4,91,94.2,91H25.9C11.6,91,0,79.4,0,65.2V25.8C0,11.6,11.6,0,25.9,0h68.3
		C108.4,0,120,11.6,120,25.8V65.2z"/>
	<g>
		<path class="st1" d="M59.7,14.5c7.5,0,14.9,0,22.4,0c2.7,0,3.7,0.9,3.6,3.5c0,7.8-0.4,14.8-1.3,21.4C83,49,80.7,58.2,78.2,67.5
			c-1.3,4.8-5.5,8.2-10.6,8.2c-5.3,0-10.7,0-16,0c-5,0-9.1-3.2-10.3-8.1c-1.3-5.5-2.9-10.9-4-16.5c-1.1-5.8-1.9-11.8-2.6-17.7
			c-0.5-4.9-0.7-9.9-0.9-14.9c-0.1-3.4,0.6-4,4.1-4C45.2,14.5,52.5,14.5,59.7,14.5z M80.2,33.2c-7.4,2.4-14.8,1.4-20.6-0.8
			c-6-2.4-12-2.5-18.2-1.2c-1.6,0.3-2,1-1.8,2.3c0.6,4.2,1,8.4,1.8,12.5c1.5,7.1,3.1,14.1,4.9,21.1c0.6,2.2,2.5,3.5,4.7,3.6
			c5.7,0.2,11.4,0.1,17.1,0c2.3,0,4.7-2,5.3-4.2c1.3-5.1,2.7-10.2,3.8-15.4C78.3,45.3,79.2,39.4,80.2,33.2z M39.2,28.9
			c0.9-0.2,1.6-0.4,2.3-0.5c5.9-1,11.9-1.3,17.5,1c5.8,2.4,11.7,2.9,17.8,1.9c1.3-0.2,3.4-1.1,3.5-1.9c0.3-4,0.2-7.4,0.2-11.5
			c-13.7,0-27.6,0.2-41.9,0.2C38.8,22,39,25,39.2,28.9z"/>
	</g>
</g>
<path class="st0" d="M120,65.3c0,14.3-11.6,25.8-25.9,25.8H25.9C11.6,91.1,0,79.6,0,65.3V26C0,11.7,11.6,0.1,25.9,0.1h68.3
	C108.4,0.1,120,11.7,120,26V65.3z"/>
<g id="Your_Branding_1_" class="st2">
	<path class="st3" d="M65.1,30.5c-3.8,3.8-7.8,7.8-11.7,11.6s-8,8-11.8,11.8c1.9,1.9,4.1,4.1,6,6.1c0.6,0.6,1.1,0.6,1.9,0.4
		c3.2-0.9,6.4-1.9,9.7-2.6c2.5-0.5,4.8,0.3,6.2,2.6c1.4,2.4,3,4.8,4,7.3c2.3,5.6,6.4,10.1,12.6,9.4c1.6-0.2,3.3-1.2,4.3-2.1
		c1-1,1.9-2.6,2.1-4.2c0.7-6.2-3.8-10.2-9.5-12.5c-2.6-1.1-4.9-2.6-7.3-4.1c-2.4-1.4-3.2-3.7-2.6-6.2c0.7-3.3,1.6-6.5,2.6-9.7
		c0.2-0.7,0.2-1.3-0.4-1.9C69.2,34.6,67.1,32.4,65.1,30.5z"/>
	<ellipse transform="matrix(0.7073 -0.7069 0.7069 0.7073 -25.1883 76.7435)" class="st4" cx="80.1" cy="68.8" rx="3.8" ry="3.8"/>
	<path class="st3" d="M39.8,51.9L24.2,36.3c-1.1-1.1-1.1-2.8,0-3.9l19.5-19.5c1.1-1.1,2.8-1.1,3.9,0l15.5,15.6L39.8,51.9z"/>
</g>
<path id="Eco_Friendly" class="st5" d="M81,34.8C89.7,9.2,56.3,9.2,49.3,28c-5.6-14.4-23.4-17.4-30-8.4C7.1,36,32.8,54.4,43.6,65.6
	C6.1,21.3,38,18,49.2,35c12.3-21,28.3-13,29.2,0.4c-10.2,2-20.2,3.5-28.3,11.7c-7.5,7.7,1,21.5,1.4,22.8
	c7.1-9.7,16.9-16.9,34.2-24.7C71.9,54.2,59.8,64.6,54.6,72c32.4,15.3,48.6-21.5,49.3-49.7C97.3,30.3,89.3,33,81,34.8z"/>
<g id="Employees" class="st2">
	<path class="st3" d="M29.3,24.1c0-6.1,5.1-10.8,11.6-10.8c6.4,0,11.3,4.8,11.3,10.8c0,6.1-5.2,10.9-11.5,10.8
		C34.4,34.9,29.4,30.1,29.3,24.1z"/>
	<path class="st3" d="M67.9,24.1c0-6.1,5.1-10.8,11.6-10.8c6.4,0,11.3,4.8,11.3,10.8c0,6.1-5.2,10.9-11.6,10.9
		C72.9,34.9,67.9,30.1,67.9,24.1z"/>
	<g id="XMLID_4_" class="st6">
		<path class="st7" d="M97.2,50.3c0.1,3.9,0.1,7.7-0.1,11.6C92,64.2,80,66.6,79.9,65.3C81,48.5,66.6,46.7,66.6,46.7
			c4.8-4.5,4.7-6.3,5.4-9.8c1.4-0.5,8.9,0,13.6,0.8C92.4,38.9,97,44.3,97.2,50.3z"/>
		<path class="st7" d="M47.7,35.8c0-6.5,5.5-11.7,12.5-11.6c6.9,0,12.2,5.1,12.2,11.7c0,6.6-5.6,11.8-12.5,11.7
			C53.1,47.4,47.7,42.3,47.7,35.8z"/>
		<path class="st7" d="M22.6,50.3c-0.1,3.9-0.1,7.7,0.1,11.6c5.2,2.3,17.2,4.7,17.3,3.4c-1.1-16.8,13.3-18.6,13.3-18.6
			c-4.8-4.5-4.7-6.3-5.4-9.8c-1.4-0.5-8.9,0-13.6,0.8C27.4,38.9,22.8,44.3,22.6,50.3z"/>
	</g>
	<g id="XMLID_3_" class="st6">
		<path class="st8" d="M80.3,71.8c0,1.4-0.4,2.1-1.7,2.6c-5.6,2.1-11.4,2.9-17.4,2.9c-6.7,0-13.3-1.1-19.7-2.9
			c-1.4-0.4-1.9-1-1.8-2.4c0.1-3.7,0-7.4,0.1-11.1c0.1-7.6,6.2-13.8,13.9-14.4c2,0.9,4.2,1.4,6.6,1.4c2.2,0,4.3-0.4,6.2-1.2
			c0,0,0,0,0,0c1.1,0.1,2,0.2,2.6,0.3c6.8,1.5,11.2,7.3,11.4,14.2C80.3,64.7,80.2,68.2,80.3,71.8z"/>
		<path class="st8" d="M47.7,35.8c0-6.8,5.5-12.2,12.5-12.1c6.9,0,12.2,5.4,12.2,12.2c0,6.9-5.6,12.3-12.5,12.2
			C53.1,47.9,47.7,42.5,47.7,35.8z"/>
	</g>
</g>
<g id="Satisfied_Patrons" class="st2">
	<path class="st9" d="M67.2,65.3c0.5-0.2,0.4-1-0.1-1.2c-3-1.5-2.3-8,0.8-8.9c0.5-0.1,0.5-0.8,0-1.1c-2.2-1.3-2.2-5.9,0.1-8
		c0.4-0.3,0.5-0.6,0.1-0.9c-1.2-0.8-1.8-2.2-1.8-4.2h0c0-1,0.5-2.6,1.4-3.4c0.3-0.3,0.5-0.5,0-0.8c-0.5-0.3-0.9-0.6-0.8-1.1
		c0-0.4,0.5-0.9,0.8-1.3c3.6-5.2,4.6-7.8,4.4-12.9c-0.4-9.6-8.1-7.7-8.1-0.5c-0.4,4.7-4.5,11.5-9.2,12.9c-7.9,2.4-8.3,9.6-8.3,9.6
		l-0.3,2c-0.5,5.3-0.6,10.5,0,15.8l0.5,2.9l0.3,0.6c2.7,5.7,7.3,8.3,16.8,8.3c2.2,0,4.4-1,3.6-1.5C65.1,70.4,65.6,66.1,67.2,65.3z"
		/>
	<path class="st9" d="M41.9,36c0,0-10.1,0-10.1,0c-2.2,0-4,8-4,17.6c0,8.6,1.5,15.8,3.4,17.1c0.4,0.3,0.9,0.2,1.1,0.2h9.7
		c1.5,0,2.7-1.2,2.7-2.6c-2.1-9.8-2.6-19.8,0-29.7C44.6,37.3,43.4,36,41.9,36z"/>
	<path class="st9" d="M68,41L68,41c0,2,1.5,4,3.4,4h15.2c1.9,0,3.4-1.6,3.4-3.5c0-1.9-1.5-3.5-3.4-3.5H71.4C69.5,38,68,39,68,41z"/>
	<path class="st9" d="M79,65h-8.2c-1.7,0-3,1.5-3,3.5c0,2,1.4,3.5,3,3.5H79c1.7,0,3-1.5,3-3.5C82,66.5,80.6,65,79,65z"/>
	<path class="st9" d="M87.2,47H71.6c-1.9,0-3.5,1.5-3.5,3.5c0,2,1.6,3.5,3.5,3.5h15.6c1.9,0,3.5-1.5,3.5-3.5
		C90.6,48.5,89.1,47,87.2,47z"/>
	<path class="st9" d="M67.1,60.3c0-0.1,0-0.1,0-0.2c0-0.1,0-0.1,0-0.2L67.1,60.3z"/>
	<path class="st9" d="M84.4,56H70.3c-2.6,0-3.2,1.9-3.2,3.7c0.1,1.8,1.2,3.3,3.2,3.3h14.1c1.8,0,3.2-1.6,3.2-3.5
		C87.6,57.6,86.2,56,84.4,56z"/>
</g>
<path id="Healthy" class="st10" d="M87,35H70V18c0-2.2-2-4-4.2-4h-12c-2.2,0-3.9,1.8-3.9,4v17H32.7c-2.2,0-3.7,2-3.7,4.2v12
	c0,2.2,1.5,3.9,3.7,3.9H50v17.3c0,2.2,1.7,3.7,3.9,3.7h12c2.2,0,4.2-1.5,4.2-3.7V55h17c2.2,0,4-1.7,4-3.9v-12C91,37,89.2,35,87,35z"
	/>
<g id="Accessoires" class="st2">
	<path class="st3" d="M91.3,41.1c1-12.4,3.3-12-7.9-12c-11.1-0.1-8.6-0.4-7.5,12c0.8,9.7-0.1,18.8-0.5,28.2
		c-0.1,3.3,0.9,4.6,4.3,4.7c1.2,0,6.6,0,7.8,0c3.4-0.1,4.4-1.3,4.3-4.7C91.4,59.9,90.5,50.8,91.3,41.1z"/>
	<path class="st3" d="M88.2,26.9H79c-0.6,0-1-0.4-1-1v-1.5c0-0.5,0.4-1,1-1h9.2c0.6,0,1,0.5,1,1v1.5C89.2,26.4,88.7,26.9,88.2,26.9z
		"/>
	<path class="st3" d="M40.8,32.6h-7c-0.5,0-1-0.5-1-1l1-6.8c0-0.5,0.5-1,1-1h4.6c0.5,0,0.9,0.4,1,1l1.4,6.8
		C41.8,32.2,41.4,32.6,40.8,32.6z"/>
	<path class="st3" d="M44.9,53.6c0-4.7,0-9.4,0-14.1c0-3.1-1.1-4.6-4.6-4.6c-1.2,0-5.2,0-6.4,0c-3.5-0.1-4.5,1.4-4.5,4.6
		c0,4.7,0.1,9.4,0,14.1c0,4.1,0,8.2,0,12.3c0,6.6,1.2,8,7.3,8c0.1,0,0.2,0,0.2,0c0,0,0.3,0,0.4,0c6.1,0,7.5-1.4,7.5-8
		C44.9,61.7,44.9,57.6,44.9,53.6z"/>
	<path class="st3" d="M68.3,69.1C67,56.2,64,33.6,63.1,26.9l-0.2-1.6c0,0,0,0,0-0.1c0-0.1-0.1-0.2-0.5-0.2h-4.8
		c-0.2,0-0.3,0-0.4,0.1c0,0-4.1,29.1-5.7,44.3c-0.7,7,1.1,9,8.6,9C67.5,78.4,69.1,76.1,68.3,69.1z"/>
	<path class="st3" d="M63,15h-6c-0.3,0-0.5-0.2-0.5-0.5v-1.1c0-0.3,0.2-0.5,0.5-0.5h6c0.3,0,0.5,0.2,0.5,0.5v1.1
		C63.5,14.8,63.3,15,63,15z"/>
	<path class="st3" d="M62.3,23h-4.6c-0.3,0-0.5-0.2-0.5-0.5v-5.1c0-0.3,0.2-0.5,0.5-0.5h4.6c0.3,0,0.5,0.2,0.5,0.5v5.1
		C62.8,22.8,62.6,23,62.3,23z"/>
</g>
<g id="Real_Savings" class="st2">
	<path class="st3" d="M59.3,17.9c-6.9-4.2-18.1-4.2-25,0c-6.9,4.2-6.9,11,0,15.2c6.9,4.2,18.1,4.2,25,0
		C66.2,28.8,66.2,22.1,59.3,17.9z M29.1,29.1v6.5c0,2.7,1.7,5.5,5.2,7.6c6.9,4.2,18.1,4.2,25,0c3.5-2.1,5.2-4.8,5.2-7.6v-6.5
		c0,2.7-1.7,5.5-5.2,7.6c-6.9,4.2-18.1,4.2-25,0C30.9,34.6,29.1,31.8,29.1,29.1z M29.1,38.5v6.5c0,2.7,1.7,5.5,5.2,7.6
		c5.2,3.1,12.7,3.9,19.1,2.4v-6.5C47,50,39.5,49.3,34.3,46.1C30.9,44,29.1,41.3,29.1,38.5z M29.1,48v6.5c0,2.7,1.7,5.5,5.2,7.6
		c5.2,3.1,12.7,3.9,19.1,2.4V58c-6.4,1.5-13.9,0.8-19.1-2.4C30.9,53.5,29.1,50.8,29.1,48z"/>
	<circle class="st3" cx="73.7" cy="58.5" r="17.1"/>
	<text transform="matrix(1 0 0 1 66.8115 66.2627)" class="st4 st11 st12">$</text>
</g>
<g id="Baker" class="st2">
	<path class="st3" d="M78.9,31.5c-0.7,0-1.4,0-2,0.1c-3.9-4.6-9.8-7.6-16.3-7.6c-6.7,0-12.6,3.1-16.6,7.9c-0.9-0.1-1.8-0.2-2.7-0.2
		c-9.7,0-17.6,9.4-17.6,19.1S31.5,70,41.2,70c3.4,0,34.1,0,37.2,0c9.7,0,18.1-10,18.1-19.7S88.6,31.5,78.9,31.5z"/>
	<path class="st13" d="M40.1,30.6c9-0.2,16.5,7,16.7,16.1"/>
	<path class="st13" d="M75.5,28.5c6.4,6.3,6.6,16.6,0.5,23.2"/>
</g>
<g class="st2">
	<path class="st3" d="M60.1,29.9c18.3,0,33.1,14.8,33.1,33.1l-66.3,0C26.9,44.7,41.8,29.9,60.1,29.9z"/>
	<path class="st14" d="M34.1,58c-0.2-10.3,9.5-22.4,21.9-22.4"/>
	<path class="st3" d="M92.2,64.4H27.9c-0.5,0-1-0.5-1-1v-0.8c0-0.5,0.5-1,1-1h64.3c0.6,0,1,0.5,1,1v0.8C93.2,64,92.8,64.4,92.2,64.4
		z"/>
	<circle class="st15" cx="60" cy="24.4" r="6.6"/>
	<path class="st3" d="M93.6,71.3H26.4c-1.1,0-2-0.9-2-2v-1.5c0-1.1,0.9-2,2-2h67.1c1.1,0,2,0.9,2,2v1.5
		C95.6,70.4,94.7,71.3,93.6,71.3z"/>
</g>
<g id="Clean" class="st2">
	<g class="st6">
		<path class="st7" d="M46.3,25c-1.2,4-1.9,6.4-1.9,9.7C44.4,45.2,51.4,54,60,54s15.5-9,15.5-19.5c0-3.3-0.7-5.5-1.9-9.5H46.3z"/>
		<g>
			<path class="st0" d="M55.6,22.6c7.4,2.6,10.5,1.3,14.2,12c3.1-7.4,3.2-9.2,13.4-12.2C75.2,21,71.6,22,69.7,15.7
				C68,22.1,63.6,21.1,55.6,22.6z"/>
		</g>
		<g>
			<path class="st7" d="M82.2,37.8c-0.5-2.4-1.8-4-4.2-4.5c2.4-0.6,3.8-2,4.2-4.5c0.6,2.3,1.8,3.9,4.4,4.5
				C84,33.8,82.8,35.5,82.2,37.8z"/>
		</g>
		<g>
			<path class="st7" d="M59.9,18c-0.5-2.4-1.8-4-4.2-4.5c2.4-0.6,3.8-2,4.2-4.5c0.6,2.3,1.8,3.9,4.4,4.5C61.7,14,60.5,15.7,59.9,18z
				"/>
		</g>
		<g>
			<path class="st7" d="M60.8,22.8c4.7,0.9,7.8,3.5,8.9,8.3c1.2-4.7,4-7.4,8.8-8.3c-4.5-1.2-7.7-3.6-8.9-8.6
				C68.7,19.2,65.4,21.6,60.8,22.8z"/>
		</g>
	</g>
	<path class="st7" d="M60,55.5l-0.1,0c-0.3,0-0.9,0.1-0.9,0.4v0v14.9c0,0.8-0.3,1.7-2.6,2l-8,1.2c-1.1,0.1-2,0.1-2,1
		c0,0.4,5.7,1.1,13.7,1.2V55.5z"/>
	<path class="st3" d="M73.5,72.9l-9.1-1.5c-2.6-0.4-2.8-1.8-2.8-2.7L61.6,53h-3.3l-0.1,15.7c0,1-0.2,2.2-2.8,2.6l-9.1,1.5
		c-0.9,0.2-2,0.5-2.3,1.5C43.9,74.9,51,76,59,76v0c0,0,0.6,0,0.6,0h0.6c0,0,0,0,0,0v0c8.9,0,15.6-1.1,15.4-1.7
		C75.4,73.4,74.4,73,73.5,72.9z"/>
</g>
<path id="Install" class="st10" d="M89.5,64.8C78.9,54.3,68.4,43.7,57.7,33.1c-1-1-1.3-1.8-1.1-3.2c1.1-7.1-3-13.6-9.8-15.7
	c-2.4-0.7-4.9-0.8-7.6-0.1c2.3,2.3,4.4,4.4,6.5,6.5c1.5,1.3,2.8,3.4,2.8,5.7c0,4-3.2,7.2-7.2,7.2c-2.1,0-3.9-0.9-5.3-2.3
	c0,0,0,0,0,0c-2.2-2.3-4.5-4.6-6.9-7c-0.2,0.6-0.3,1-0.4,1.3c-1.6,9.8,7.4,18.2,17.1,16c1-0.2,1.6-0.1,2.4,0.6
	c4.9,5,9.8,9.9,14.7,14.8c5.8,5.8,11.5,11.5,17.3,17.3c2,2,4.4,2.7,7.1,1.8C92.2,74.6,93.3,68.7,89.5,64.8z M85.7,73.6
	c-1.5,0-2.6-1.2-2.6-2.7c0-1.5,1.2-2.6,2.7-2.6c1.5,0,2.6,1.2,2.6,2.7C88.4,72.5,87.3,73.6,85.7,73.6z"/>
<g id="Proven_Technology" class="st2">
	<g class="st6">
		<polygon class="st7" points="49.3,72.5 53,76.2 58,56 52.2,49.9 38,76.2 		"/>
		<polygon class="st7" points="70.9,72.5 67.3,76.2 62.2,56 68,49.9 82.2,76.2 		"/>
		<path class="st16" d="M81.4,35.9L81.4,35.9c0-1.3,0.2-2.6,0.8-3.9c1-2.6,0.4-4.7-2-6.1c-2.4-1.5-3.8-3.5-4.5-6.3
			c-0.7-2.6-2.3-3.9-5-3.7c-3,0.2-5.4-0.6-7.6-2.5c-1.8-1.5-4.1-1.6-6-0.1c-2.3,1.9-4.7,2.8-7.8,2.6c-2.6-0.2-4.2,1.1-4.9,3.6
			c-0.7,2.8-2.2,4.9-4.7,6.5c-2.2,1.3-2.8,3.4-1.9,5.8c0.5,1.3,0.8,2.6,0.8,3.9h0c0,1.3-0.2,2.6-0.8,3.9c-1,2.6-0.4,4.7,2,6.1
			c2.4,1.5,3.8,3.5,4.5,6.3c0.7,2.6,2.3,3.9,5,3.7c3-0.2,5.4,0.6,7.6,2.5c1.8,1.5,4.1,1.6,6,0.1c2.3-1.9,4.7-2.8,7.8-2.6
			c2.6,0.2,4.2-1.1,4.9-3.6c0.7-2.8,2.2-4.9,4.7-6.5c2.2-1.3,2.8-3.4,1.9-5.8C81.7,38.4,81.4,37.2,81.4,35.9z"/>
	</g>
	<polyline class="st17" points="53.2,37.3 58.3,42.1 67.9,30.5 	"/>
	<circle class="st4" cx="59.4" cy="35.7" r="13.1"/>
	<polyline class="st18" points="53.3,37.2 57.9,41.4 66.5,31.1 	"/>
</g>
<path id="Quality" class="st10" d="M88.4,36.4c-5.6-0.7-11.3-1.4-16.9-2.1l0,0c-0.3,0-0.6-0.1-0.9-0.1c-0.8-0.1-1-0.6-1.2-1.1
	c-2.4-4.9-4.8-9.8-7.2-14.7c-0.4-0.9-1.1-2-2.2-2c-1,0-1.6,1.1-2,2c-2.4,4.9-4.6,9.8-7,14.7c-0.3,0.5-0.5,1-1.2,1.1
	c-0.3,0-0.6,0.1-0.9,0.1l0,0C43.2,35,37.6,35.7,32,36.4c-1.7,0.2-2.5,1.7-1.7,3.2c0.2,0.4,0.6,0.8,1,1.2c3,3,6.4,5.9,9.5,8.9
	c0.9,0.9,1.8,1.8,2.7,2.6c0.5,0.5,0.8,0.9,0.6,1.7c-1,5.6-2,11.2-3,16.8c-0.3,1.6,0.9,2.8,2.5,2.5c0.5-0.1,0.9-0.4,1.4-0.6
	c4.8-2.5,9.4-5,14.2-7.5c0.3-0.2,0.7-0.3,0.7-0.3c0.3,0,0.6,0.2,0.9,0.3c4.8,2.5,9.5,5,14.3,7.5c0.5,0.2,0.9,0.5,1.4,0.6
	c1.6,0.3,2.8-0.9,2.5-2.5c-1-5.6-1.9-11.2-3-16.8c-0.1-0.8,0.2-1.2,0.6-1.7c0.9-0.9,1.8-1.7,2.7-2.6c3.2-3,6.6-5.9,9.5-8.9
	c0.4-0.4,0.7-0.7,1-1.2C90.9,38.1,90.1,36.6,88.4,36.4z"/>
<g id="German" class="st2">
	<path id="Dtld_1_" class="st3" d="M44.5,64.1c-2.5-0.6-4.7-1.1-6.8-1.7c-4.1-1.2-5.8-3.6-5.4-7.9c0.2-1.7,0-3-1-4.6
		c-0.7-1-0.3-2.8-0.3-4.3c0-1.8,0.2-3.7,0.3-5.5c-0.2-0.1-0.4-0.2-0.6-0.3c0.9-0.3,1.7-0.6,2.6-0.8c2.3-0.6,3-1.7,2.5-4
		c-0.3-1.2-0.2-1.9,0.9-2.8c0.8-0.6,1.2-1.9,1.5-2.9c0.3-1.2,0.1-2.4,0.3-3.7c0.4-2.5,1.7-3.2,4.1-2.4c1.1,0.3,2.4,1.2,3.2,0.8
		c1.3-0.6,2.4-1.9,3.4-3.1c0.2-0.3,0-1,0-1.5c-0.1-1.1-0.2-2.3-0.4-3.4c-0.1-0.9-0.2-1.8-0.3-2.8c1.4,0,3,0,4.5,0
		c1.9,0,3.3,0.7,4.4,2.2c1.9,2.5,3,2.9,5.9,1.8c0.3-0.1,0.6-0.2,1.2-0.5c-0.6,1.3-1.1,2.2-1.8,3.6c1.4,0,2.6,0.3,3.6-0.1
		c2.7-1,5.4-2.2,8.1-3.4c1.1-0.5,2.1-1.2,3.1-1.9c0.9-0.6,1.5-0.7,2.1,0.4c1.1,2.1,2.1,4.3,3.4,6.1c1.9,2.6,3.1,5.1,1.2,8.2
		c-0.3,0.4,0,1.6,0.4,1.9c1.9,1.4,2.1,3.4,2.2,5.5c0.1,2.6,0.4,5,1.9,7.2c1.1,1.7,0,3.2-2.3,3.3c-4.6,0.2-8.6,1.9-12.4,4.4
		c-2.6,1.7-3,2.9-1.3,5.5c1,1.6,2.5,2.8,3.9,4.1c1.1,1.1,2.5,1.9,3.7,2.9c1.6,1.4,1.5,2.2-0.3,3.3c-0.8,0.5-1.6,1-2.5,1.4
		c-1.9,0.9-2.5,2.2-1.6,4.2c0.3,0.6,0.4,1.4,0.6,2.5c-1.1-0.3-1.9-0.5-2.6-0.8c-2.1-0.9-4-0.7-6.1,0.4c-1.1,0.6-2.6,0.7-3.9,0.7
		c-2.1-0.1-4.2-0.8-5.9,1c-4.5-2.4-9.2-3.3-14.2-2c-2.4,0.6-3.2-0.1-3-2.5C41.2,69.8,42.1,66.8,44.5,64.1z"/>
	<polyline class="st19" points="53.2,44.4 57.8,48.9 66.6,38.2 	"/>
</g>
<g id="Portable" class="st2">
	<g class="st6">
		<path class="st7" d="M47.4,30c0,0-6.9,0-6.9,0c-1.5,0-2.7,5.3-2.7,11.8c0,5.9,1.2,11.2,3,11.2h6.6c1,0,1.9-0.6,1.9-1.6
			c-1.4-6.7-1.8-13.2,0-19.9C49.2,30.6,48.4,30,47.4,30z"/>
		<path class="st7" d="M65,34.4c0-1.4,1-2.4,2.3-2.5c-0.1-0.2-0.1-0.5-0.2-0.5c-0.4-0.2-3.5-0.8-2.6-2.1c0.2-0.2,0.3-0.6,0.5-0.9
			c2.5-3.5,3.1-5.3,3-8.8c-0.3-6.5-5.5-5.3-5.6-0.3c-0.3,3.2-3.1,7.8-6.3,8.8c-5.4,1.6-5.7,6.6-5.7,6.6L50.2,36
			c-0.4,3.6-0.4,7.2,0,10.8l0.3,2l0.2,0.4c1.8,3.9,5,5.6,11.5,5.7c0.8,0,1.8-0.2,2.5-0.5c-0.2-0.4-0.4-0.8-0.4-1.3
			c0-1.3,0.7-2.1,1.6-2.1h1.1c0,0,0-0.5,0-0.6c0-0.4,0-0.4,0-1.4h-0.4c-1.2,0-2.1-0.6-2.1-2c0-1.4,1-2,2.1-2h0.5c0-1,0-1.2,0-1.7
			C66,43.3,65,42,65,40.7c0-1.4,1.1-2.7,2.4-2.7h0.1c0,0,0-1,0-1h-0.1C66,37,65,35.8,65,34.4z"/>
	</g>
	<path class="st20" d="M64.6,46.1c0,0,0-0.1,0-0.1c0,0,0-0.1,0-0.1L64.6,46.1z"/>
	<g class="st6">
		<g>
			<g>
				<path class="st7" d="M67.6,43c-1.6,0-2.9-1.3-2.9-3c0-1.7,1.3-3,2.9-3h10.6c1.6,0,2.9,1.3,2.9,3c0,1.7-1.3,3-2.9,3H67.6z"/>
				<path class="st0" d="M78.3,38c1.3,0,2.4,1.1,2.4,2.5c0,1.4-1.1,2.5-2.4,2.5H67.6c-1.3,0-2.4-1.1-2.4-2.5c0-1.4,1.1-2.5,2.4-2.5
					H78 M78.3,37H67.6c-1.9,0-3.4,1.6-3.4,3.5c0,1.9,1.5,3.5,3.4,3.5h10.6c1.9,0,3.4-1.6,3.4-3.5C81.6,38.6,80.1,37,78.3,37L78.3,37
					z"/>
			</g>
			<g>
				<path class="st7" d="M67.6,37c-1.6,0-2.9-1.3-2.9-3c0-1.7,1.3-3,2.9-3h10.6c1.6,0,2.9,1.3,2.9,3c0,1.7-1.3,3-2.9,3H67.6z"/>
				<path class="st0" d="M78.3,32c1.3,0,2.4,1.1,2.4,2.5c0,1.4-1.1,2.5-2.4,2.5H67.6c-1.3,0-2.4-1.1-2.4-2.5c0-1.4,1.1-2.5,2.4-2.5
					H78 M78.3,31H67.6c-1.9,0-3.4,1.6-3.4,3.5c0,1.9,1.5,3.5,3.4,3.5h10.6c1.9,0,3.4-1.6,3.4-3.5C81.6,32.6,80.1,31,78.3,31L78.3,31
					z"/>
			</g>
		</g>
		<g>
			<path class="st7" d="M67,49c-1.5,0-2.6-1.3-2.6-3c0-1.7,1.2-3,2.6-3h9.7c1.5,0,2.6,1.3,2.6,3c0,1.7-1.2,3-2.6,3H67z"/>
			<path class="st0" d="M76.7,44c1.2,0,2.1,1.1,2.1,2.5c0,1.4-1,2.5-2.1,2.5H67c-1.2,0-2.1-1.1-2.1-2.5c0-1.4,1-2.5,2.1-2.5h10
				 M76.7,43H67c-1.7,0-3.1,1.6-3.1,3.5c0,1.9,1.4,3.5,3.1,3.5h9.7c1.7,0,3.1-1.6,3.1-3.5C79.9,44.6,78.5,43,76.7,43L76.7,43z"/>
		</g>
		<g>
			<path class="st7" d="M66.4,55c-1.3,0-2.1-1.5-2.1-3c0-1.5,0.9-3,2.1-3h7.3c1.3,0,2.1,1.6,2.1,3c0,1.4-0.9,3-2.1,3H66.4z"/>
			<path class="st0" d="M73.7,50c0.9,0,1.6,1.2,1.6,2.5c0,1.2-0.7,2.5-1.6,2.5h-7.3c-0.9,0-1.6-1.2-1.6-2.5c0-1.3,0.7-2.5,1.6-2.5
				H74 M73.7,49h-7.3c-1.6,0-2.6,1.8-2.6,3.5c0,1.7,1.1,3.5,2.6,3.5h7.3c1.6,0,2.6-1.8,2.6-3.5C76.3,50.8,75.2,49,73.7,49L73.7,49z"
				/>
		</g>
	</g>
	<path class="st21" d="M96.5,57c-21.7,21.9-57.1,22.2-79.1,0.6"/>
	<path class="st3" d="M90.6,53.2c0-0.2,0.1-0.3,0.3-0.3l11.3-2c0.2,0,0.3,0.1,0.3,0.3l-1.7,11.3c0,0.2-0.1,0.3-0.3,0.3L90.6,53.2z"
		/>
</g>
<path id="Appliance_Shield" class="st5" d="M71.9,29.5l2.6,14.3c1.1,6,2.6,7.2,4,6.1c3.1-2.3,4.8-8.4,4-13.2
	C80.8,26.6,70,18.8,71.9,29.5 M56.3,35.9c-1.8,0-1.8,2.8,0,2.8h4.3l0.2,3.9c0,0-0.1,0-0.1,0h-4.4c-1.8,0-1.8,2.8,0,2.8h4.4
	c0.1,0,0.1,0,0.2,0l0.2,4c-0.1,0-0.2,0-0.4,0h-4.4c-1.8,0-1.8,2.8,0,2.8h4.4c0.2,0,0.3,0,0.5-0.1l0.1,3c0.1,2-1.6,3.6-3.4,3.6h-2.6
	c-1.9,0-3.5-1.6-3.4-3.6L52.6,32c0.2-4.9,7.5-4.9,7.7,0l0.2,3.9H56.3z M35.1,17.5l28.9,0c0.5-0.1,6.3-0.1,6.8-0.1
	c9,0,16.4,9.2,16.4,20.5c0,6.4-2.4,12.2-6.1,15.9c-4.8,4.9-3,0.1-4.1,6c-0.8,4.1-5.1,7.3-9.3,7.3H45.3c-5.1,0-9.4-4.5-9.4-9.9
	c0-9.4,3.7-13.2,3.7-22.9c0-6.5-2.4-12.3-4.6-16.4V17.5z M38.8,68.9h35.4c1.4,0,2.5,1.2,2.5,2.6v0.3c0,1.4-1.1,2.6-2.5,2.6H38.8
	c-1.4,0-2.5-1.2-2.5-2.6v-0.3C36.3,70.1,37.4,68.9,38.8,68.9z"/>
<path class="st22" d="M49.2,48.9c1.8,2.2,4.1,5,5.8,7c-9.2,11.5-20.6,9.4-27.8,1.3c-5.1-5.7-5.3-13-2.8-19.4
	c2.6-6.8,8.2-9.9,15.4-10.4c7.5-0.4,13.6,2.6,18.4,8.1c3,3.5,5.7,7.3,8.6,10.9c1.4,1.7,2.9,3.4,4.6,4.8c3.3,2.6,7.6,2.8,10.9,0.8
	c3.9-2.4,4.9-7.1,2.5-11.3c-2.2-3.9-6.6-5.2-10.6-3.1c-1.3,0.7-2.5,1.7-3.6,2.6c-0.8,0.6-0.6,0.5-1.5,1.4c-1.7-2.2-3.9-4.5-5.5-6.6
	c6-7.3,14.4-9,21.4-6.5c7.6,2.8,12,10.4,11.2,19.2c-0.7,7.5-6.6,13.8-14.2,15.2c-9.4,1.6-16.7-2-22.4-9.4c-3.2-4.1-6.6-8.1-9.9-12
	c-2.2-2.6-4.9-4.3-8.4-4.3c-3.7,0-6.7,2.4-7.8,6c-1.1,3.5,0.2,7.2,3,9.3C39.2,54.6,45.4,54.6,49.2,48.9z"/>
<g id="Unlimited_Supply" class="st2">
	<path class="st23" d="M65.2,42.7c0.1-0.1,5-5.8,5.2-5.9c1.8-1.6,3.9-2.7,6.1-3.2c4.3-1,9,0.2,12.4,3.6c5.2,5.2,5.2,13.7,0,19
		c-5.1,5.1-13.2,5.2-18.4,0.5c-0.2-0.2-12.8-12.1-13-12.2"/>
	<path class="st23" d="M62.2,48.9C62,48.7,49.5,36.8,49.3,36.7c-5.3-4.7-13.4-4.5-18.4,0.5c-5.2,5.2-5.2,13.7,0,19
		c3.4,3.4,8.1,4.6,12.4,3.6c2.2-0.5,4.3-1.6,6.1-3.2c0.1-0.1,4.9-5.8,5-6"/>
</g>
<g id="Convenient" class="st2">
	<path class="st3" d="M73.9,32h-8.5v-3.8h3.5c2.6,0,4.7-2.1,4.7-4.7V21c0-2.6-2.1-4.7-4.7-4.7H51.2c-2.6,0-4.7,2.1-4.7,4.7v2.5
		c0,2.6,2.1,4.7,4.7,4.7h3.5V32h-8.5c-3,0-5.4,2.4-5.4,5.4v31.3c0,3,2.4,5.4,5.4,5.4h27.7c3,0,5.4-2.4,5.4-5.4V37.4
		C79.3,34.4,76.9,32,73.9,32z"/>
	<g class="st6">
		<g>
			<g>
				<path class="st0" d="M49.6,57.1V42.2h2.8v7.9l3.3-3.8h3.5l-3.7,3.9l3.9,6.8h-3.1l-2.7-4.8l-1.3,1.4v3.4H49.6z"/>
				<path class="st0" d="M61,57.8l3.3,0.4c0.1,0.4,0.2,0.6,0.4,0.8c0.3,0.2,0.7,0.3,1.3,0.3c0.7,0,1.3-0.1,1.7-0.3
					c0.2-0.1,0.4-0.4,0.6-0.7c0.1-0.2,0.1-0.7,0.1-1.3v-1.6c-0.8,1.2-1.9,1.7-3.2,1.7c-1.4,0-2.6-0.6-3.4-1.8c-0.7-1-1-2.2-1-3.6
					c0-1.8,0.4-3.2,1.3-4.1c0.9-1,1.9-1.4,3.2-1.4c1.3,0,2.4,0.6,3.3,1.8v-1.5h2.7V56c0,1.3-0.1,2.2-0.3,2.8
					c-0.2,0.6-0.5,1.1-0.9,1.5c-0.4,0.4-0.9,0.6-1.5,0.8c-0.6,0.2-1.4,0.3-2.4,0.3c-1.8,0-3.1-0.3-3.9-0.9c-0.8-0.6-1.1-1.4-1.1-2.4
					C61,58,61,57.9,61,57.8z M63.5,51.5c0,1.1,0.2,2,0.7,2.5c0.4,0.5,1,0.8,1.6,0.8c0.7,0,1.3-0.3,1.8-0.8c0.5-0.5,0.7-1.3,0.7-2.4
					c0-1.1-0.2-1.9-0.7-2.5c-0.5-0.5-1-0.8-1.7-0.8c-0.7,0-1.2,0.3-1.7,0.8C63.8,49.6,63.5,50.4,63.5,51.5z"/>
			</g>
		</g>
	</g>
</g>
<g id="Hot_Drinks" class="st2">
	<path class="st3" d="M91.6,46.2c-0.5-1.2-1.2-2.2-2.4-2.9c-1.3-0.8-3.2-1-5.5-0.6c0-1,0.1-1.1,0-2H36.1
		c-0.7,7.6,5.1,22.5,14.1,27.4h19.4c2.5-1.4,4.8-3.7,6.8-6.3c1.1-0.1,2.4-0.3,3.7-0.6c2.2-0.5,4.5-1.3,6.3-2.3
		c3.3-1.9,5.4-5.7,5.8-9C92.2,48.6,92,47.3,91.6,46.2z M60.2,61.9L60,62l-0.2-0.1C57.4,60.6,47,53,51.3,47.8c3.3-4,6.8-1.7,8.7,0.7
		c1.9-2.4,4.9-4.3,8.7-0.7C73.7,52.5,62.6,60.6,60.2,61.9z M89,49.6L89,49.6c-0.3,2.5-1.9,5.3-4.3,6.7c-1.5,0.9-3.5,1.5-5.4,2
		c-0.3,0.1-0.5,0.1-0.7,0.2c2.6-4.4,4.4-9.1,5-12.6c1.9-0.5,3.2-0.3,4.1,0.2c0.5,0.3,0.9,0.8,1.1,1.3C89,47.9,89.1,48.7,89,49.6z"/>
	<g class="st6">
		<g>
			<path class="st7" d="M86.5,70.2c0-0.3-0.2-0.5-0.5-0.5H34.5c-0.3,0-0.5,0.2-0.5,0.5c0,0.1,0,0.2,0.1,0.3c0.8,2,7.4,5.8,12.3,5.8
				h27.7c4.6,0,11.5-3.8,12.3-5.8C86.5,70.4,86.5,70.3,86.5,70.2z"/>
		</g>
	</g>
	<path class="st3" d="M61,24L61,24V13.5c0-0.3-0.3-0.5-0.6-0.5h-0.8c-0.3,0-0.7,0.2-0.7,0.5V24l-5,2.1V36h12v-9.8L61,24z"/>
</g>
<g id="Less_Unwanted_1_" class="st2">
	<g class="st6">
		<path class="st7" d="M50.2,32c0.2-0.1,0.2-0.3,0.1-0.4l-2.8-9.8c-0.1-0.2-0.3-0.2-0.5-0.1l-7.6,7.9c-0.2,0.1-0.2,0.3-0.1,0.4
			L50.2,32z M62.4,24c2.9,0,5.3-2.4,5.3-5.3s-2.4-5.3-5.3-5.3s-5.3,2.4-5.3,5.3S59.5,24,62.4,24z M70.7,39.1l9.1-4.5
			c0.1-0.1,0.1-0.3,0-0.5L70.8,28c-0.1-0.1-0.3-0.1-0.5,0l0,11.1C70.4,39.2,70.6,39.2,70.7,39.1z M56.1,66.9
			c-2.5-1.5-5.8-0.6-7.2,1.9c-1.5,2.5-0.6,5.8,1.9,7.2s5.8,0.6,7.2-1.9C59.5,71.6,58.7,68.4,56.1,66.9z M102.2,43.8H58.6
			c-0.7-2.4-3-4.1-5.6-4.1c-2.7,0-4.9,1.7-5.7,4.1h-30c-0.3,0-0.5,0.2-0.5,0.5v2.2c0,0.3,0.2,0.5,0.5,0.5h84.9
			c0.3,0,0.5-0.2,0.5-0.5v-2.2C102.7,44,102.5,43.8,102.2,43.8z M68.8,53.2c-2.9,0-5.3,2.4-5.3,5.3c0,2.9,2.4,5.3,5.3,5.3
			c2.9,0,5.3-2.4,5.3-5.3C74.1,55.6,71.8,53.2,68.8,53.2z"/>
	</g>
</g>
<path id="Cooking" class="st20" d="M47.1,33.1c-10.5-6.4,2.1-12.8,0-19.2C57.6,20.3,45,26.7,47.1,33.1L47.1,33.1L47.1,33.1z
	 M59.9,33.1c-2.1-6.4,10.5-12.8,0-19.2C62,20.3,49.4,26.7,59.9,33.1L59.9,33.1L59.9,33.1z M72.6,33.1c-2.1-6.4,10.5-12.8,0-19.2
	C74.7,20.3,62.1,26.7,72.6,33.1L72.6,33.1L72.6,33.1z M59.9,75.5c-4.1,0-8.2,0-12.4,0c-5.9,0-10.7-4.8-10.7-10.7
	c0-4.3,0-7.7-0.4-11.1c-0.8-0.2-1.7-0.4-2.5-0.6c-2.3-0.4-4.6-0.5-7-0.5c-1.9,0-3.5-1.6-3.5-3.5c0-1.9,1.6-3.5,3.5-3.5
	c2.6,0,5.3,0.2,8.1,0.6c-0.3-1-0.6-2.1-1-3.2c-0.8-2.6,0.6-4.5,3.4-4.5c6.4,0,16,0,22.4,0c6.4,0,16,0,22.4,0c2.8,0,4.2,1.9,3.4,4.5
	c-0.4,1.1-0.7,2.2-1,3.2c2.8-0.5,5.4-0.6,8.1-0.6c1.9,0,3.5,1.5,3.5,3.5c0,1.9-1.6,3.5-3.5,3.5c-2.4,0-4.8,0.1-7,0.5
	c-0.8,0.2-1.7,0.3-2.5,0.6c-0.4,3.4-0.4,6.8-0.4,11.1c0,5.9-4.8,10.7-10.7,10.7C68.1,75.5,64,75.5,59.9,75.5z"/>
</svg>
