<?xml version="1.0" encoding="utf-8"?>
<!-- Generator: Adobe Illustrator 19.2.1, SVG Export Plug-In . SVG Version: 6.00 Build 0)  -->
<svg version="1.1" id="Your_Branding" xmlns="http://www.w3.org/2000/svg" xmlns:xlink="http://www.w3.org/1999/xlink" x="0px"
	 y="0px" viewBox="0 0 120 91" style="enable-background:new 0 0 120 91;" xml:space="preserve">
<style type="text/css">
	.st0{display:none;fill:#282D74;}
	
		.st1{fill-rule:evenodd;clip-rule:evenodd;fill:#FFFFFF;stroke:#FFFFFF;stroke-width:0.9486;stroke-linecap:round;stroke-linejoin:bevel;stroke-miterlimit:10;}
	.st2{fill:#282D74;}
	.st3{display:none;}
	.st4{display:inline;fill:#FFFFFF;}
	.st5{display:inline;fill:#282D74;}
	.st6{fill-rule:evenodd;clip-rule:evenodd;fill:#FFFFFF;}
</style>
<g id="Great_Tasting_Water">
	<path class="st0" d="M120,65.2C120,79.4,108.4,91,94.2,91H25.9C11.6,91,0,79.4,0,65.2V25.8C0,11.6,11.6,0,25.9,0h68.3
		C108.4,0,120,11.6,120,25.8V65.2z"/>
	<g>
		<path class="st1" d="M59.7,14.5c7.5,0,14.9,0,22.4,0c2.7,0,3.7,0.9,3.6,3.5c0,7.8-0.4,14.8-1.3,21.4C83,49,80.7,58.2,78.2,67.5
			c-1.3,4.8-5.5,8.2-10.6,8.2c-5.3,0-10.7,0-16,0c-5,0-9.1-3.2-10.3-8.1c-1.3-5.5-2.9-10.9-4-16.5c-1.1-5.8-1.9-11.8-2.6-17.7
			c-0.5-4.9-0.7-9.9-0.9-14.9c-0.1-3.4,0.6-4,4.1-4C45.2,14.5,52.5,14.5,59.7,14.5z M80.2,33.2c-7.4,2.4-14.8,1.4-20.6-0.8
			c-6-2.4-12-2.5-18.2-1.2c-1.6,0.3-2,1-1.8,2.3c0.6,4.2,1,8.4,1.8,12.5c1.5,7.1,3.1,14.1,4.9,21.1c0.6,2.2,2.5,3.5,4.7,3.6
			c5.7,0.2,11.4,0.1,17.1,0c2.3,0,4.7-2,5.3-4.2c1.3-5.1,2.7-10.2,3.8-15.4C78.3,45.3,79.2,39.4,80.2,33.2z M39.2,28.9
			c0.9-0.2,1.6-0.4,2.3-0.5c5.9-1,11.9-1.3,17.5,1c5.8,2.4,11.7,2.9,17.8,1.9c1.3-0.2,3.4-1.1,3.5-1.9c0.3-4,0.2-7.4,0.2-11.5
			c-13.7,0-27.6,0.2-41.9,0.2C38.8,22,39,25,39.2,28.9z"/>
	</g>
</g>
<path class="st2" d="M120,65.2C120,79.4,108.4,91,94.2,91H25.9C11.6,91,0,79.4,0,65.2V25.8C0,11.6,11.6,0,25.9,0h68.3
	C108.4,0,120,11.6,120,25.8V65.2z"/>
<g id="Your_Branding_1_" class="st3">
	<path class="st4" d="M65.1,30.5c-3.8,3.8-7.8,7.8-11.7,11.6s-8,8-11.8,11.8c1.9,1.9,4.1,4.1,6,6.1c0.6,0.6,1.1,0.6,1.9,0.4
		c3.2-0.9,6.4-1.9,9.7-2.6c2.5-0.5,4.8,0.3,6.2,2.6c1.4,2.4,3,4.8,4,7.3c2.3,5.6,6.4,10.1,12.6,9.4c1.6-0.2,3.3-1.2,4.3-2.1
		c1-1,1.9-2.6,2.1-4.2c0.7-6.2-3.8-10.2-9.5-12.5c-2.6-1.1-4.9-2.6-7.3-4.1c-2.4-1.4-3.2-3.7-2.6-6.2c0.7-3.3,1.6-6.5,2.6-9.7
		c0.2-0.7,0.2-1.3-0.4-1.9C69.2,34.6,67.1,32.4,65.1,30.5z"/>
	<ellipse transform="matrix(0.7073 -0.7069 0.7069 0.7073 -25.1883 76.7435)" class="st5" cx="80.1" cy="68.8" rx="3.8" ry="3.8"/>
	<path class="st4" d="M39.8,51.9L24.2,36.3c-1.1-1.1-1.1-2.8,0-3.9l19.5-19.5c1.1-1.1,2.8-1.1,3.9,0l15.5,15.6L39.8,51.9z"/>
</g>
<path id="Eco_Friendly" class="st6" d="M81,34.8C89.7,9.2,56.3,9.2,49.3,28c-5.6-14.4-23.4-17.4-30-8.4C7.1,36,32.8,54.4,43.6,65.6
	C6.1,21.3,38,18,49.2,35c12.3-21,28.3-13,29.2,0.4c-10.2,2-20.2,3.5-28.3,11.7c-7.5,7.7,1,21.5,1.4,22.8
	c7.1-9.7,16.9-16.9,34.2-24.7C71.9,54.2,59.8,64.6,54.6,72c32.4,15.3,48.6-21.5,49.3-49.7C97.3,30.3,89.3,33,81,34.8z"/>
</svg>
