<svg id="Layer_1" data-name="Layer 1" xmlns="http://www.w3.org/2000/svg" viewBox="0 0 198 150"><defs><style>.cls-1{fill:#262f6c;}.cls-2,.cls-5,.cls-7,.cls-8{fill:#fff;}.cls-10,.cls-2,.cls-3,.cls-6,.cls-8,.cls-9{stroke:#262f6c;}.cls-10,.cls-2,.cls-3,.cls-8,.cls-9{stroke-linecap:round;stroke-linejoin:round;}.cls-2,.cls-3,.cls-8{stroke-width:1.5px;}.cls-2,.cls-5{fill-rule:evenodd;}.cls-10,.cls-3,.cls-4,.cls-6,.cls-9{fill:none;}.cls-4{stroke:#fff;stroke-miterlimit:2;stroke-width:2.26px;}.cls-6{stroke-miterlimit:1.41;stroke-width:0.52px;}.cls-9{stroke-width:0.54px;}.cls-10{stroke-width:0.59px;}</style></defs><rect class="cls-1" width="198" height="150" rx="30"/><polygon class="cls-2" points="66.29 20.03 60.56 36.47 54.91 37.43 43.96 29.78 47.05 15.48 66.29 20.03 66.29 20.03"/><path class="cls-3" d="M54.63,20.53s-2.45,3.24,1.09,10.71" transform="translate(0 0)"/><path class="cls-4" d="M96.83,47.84a655.17,655.17,0,0,0-37.49,56.07c8.12,4.9,12.33,7.28,18.06,9,2.39.72,5,.09,7.9,1.83L126,139.47c5.77,3.89,12.38,3.94,16.28-1.83l19.88-29.31c3.89-5.77,1.12-11.69-4.66-15.59Z" transform="translate(0 0)"/><path class="cls-4" d="M115.71,50.36c-7.8-5-12.07,2.26-12.07,2.26l35.74,26.75s7-7.14-1.92-13.71Zm1.18-5.43c-9.58-6-17.15,4.8-17.15,4.8l43.76,32.7s10.19-11.78-.61-20l-26-17.54Z" transform="translate(0 0)"/><path class="cls-5" d="M122.54,118.87s-.87.88-5.58-.14-17-8.14-20.46-9.66-10.65-1.23-18.19-2.8S62.5,98.93,62.5,98.93A497.15,497.15,0,0,1,95.78,49.61s8.45,5.52,12.72,11.92,6.69,13.17,9.4,15.81,13.91,11.37,16.63,15.36,2.21,5.13,2.21,5.13Z" transform="translate(0 0)"/><path class="cls-2" d="M62.91,30.15s-1.17-2.3-7.62,6.2c-5.12,6.74-9.2,17.13-8.78,19.24s1.55,2.45,4.65,2.32c2.89-.12,3.58-1,11.3-1h1.76s2.54-.07,2.5-.83S74.11,43,62.91,30.15Z" transform="translate(0 0)"/><path class="cls-2" d="M62.91,30.15s1.23,1.43,1.55,6.07C64.88,42.45,65,56,63.68,60s-3.23,8.13-.77,7.74,12.91-2.71,20.65-1,11.91,3.22,12-.13c.1-3.56-.91-12.14-10.33-20.91,0,0-8.91-7.1-12.13-9.3S61.17,28.78,62.91,30.15Z" transform="translate(0 0)"/><path class="cls-6" d="M82.71,39.6H80.37c-.17,2.86,1,4.49,2.47,4.43,0,0,0-2.9-.13-4.42Z" transform="translate(0 0)"/><path class="cls-7" d="M191.06,107.93l-.33-.31a6.35,6.35,0,0,0-8.54,0l-.51.47h0l-.14.13a3.42,3.42,0,0,1-4.61,0l-.13-.12a6.35,6.35,0,0,0-8.54,0,1.45,1.45,0,0,0,2,2.14,3.44,3.44,0,0,1,4.62,0l.12.11a6.34,6.34,0,0,0,8.55,0l.2-.18h0l.44-.4a3.44,3.44,0,0,1,4.62,0l.33.3a1.45,1.45,0,1,0,2-2.13Z" transform="translate(0 0)"/><path class="cls-7" d="M170.65,98.34a3.59,3.59,0,1,1,3.59-3.59A3.59,3.59,0,0,1,170.65,98.34Zm0-5.81a2.22,2.22,0,1,0,2.22,2.22A2.23,2.23,0,0,0,170.65,92.53Z" transform="translate(0 0)"/><path class="cls-7" d="M180,93.51a2.82,2.82,0,1,1,2.82-2.82A2.82,2.82,0,0,1,180,93.51Zm0-4.28a1.46,1.46,0,1,0,1.46,1.46A1.47,1.47,0,0,0,180,89.23Z" transform="translate(0 0)"/><path class="cls-7" d="M172.43,89.41a2.35,2.35,0,1,1,2.35-2.35A2.35,2.35,0,0,1,172.43,89.41Zm0-3.33a1,1,0,1,0,1,1A1,1,0,0,0,172.43,86.08Z" transform="translate(0 0)"/><path class="cls-7" d="M29.43,74.36a.69.69,0,0,1-.6-.36l-1.29-2.36-2.36-1.28a.69.69,0,0,1,0-1.2l2.36-1.29,1.29-2.36a.68.68,0,0,1,1.2,0l1.29,2.36,2.36,1.29a.69.69,0,0,1,0,1.2l-2.36,1.28L30,74A.69.69,0,0,1,29.43,74.36Zm-2.5-4.6,1.44.78a.64.64,0,0,1,.27.27l.79,1.44.79-1.44a.64.64,0,0,1,.27-.27l1.43-.78L30.49,69a.64.64,0,0,1-.27-.27l-.79-1.44-.79,1.44a.64.64,0,0,1-.27.27Z" transform="translate(0 0)"/><path class="cls-7" d="M35.54,65.82a.69.69,0,0,1-.6-.36l-1.22-2.24L31.48,62a.67.67,0,0,1-.36-.59.69.69,0,0,1,.36-.6l2.24-1.23,1.22-2.24a.68.68,0,0,1,1.2,0l1.23,2.24,2.24,1.23a.68.68,0,0,1,.35.6.66.66,0,0,1-.35.59l-2.24,1.23-1.23,2.24A.69.69,0,0,1,35.54,65.82ZM33.23,61.4l1.32.72a.64.64,0,0,1,.27.27l.72,1.32.73-1.32a.59.59,0,0,1,.27-.27l1.32-.72-1.32-.73a.59.59,0,0,1-.27-.27l-.73-1.32-.72,1.32a.64.64,0,0,1-.27.27Z" transform="translate(0 0)"/><path class="cls-7" d="M55.44,107.69A6.37,6.37,0,0,0,47.8,107a7.16,7.16,0,0,0-1.12.8,3.42,3.42,0,0,1-4.61,0l-.13-.11a6.34,6.34,0,0,0-8.55,0l-.13.13a3.44,3.44,0,0,1-4.62,0l-.13-.12a6.34,6.34,0,0,0-8.54,0l-.21.19a3.42,3.42,0,0,1-4.61,0l-.13-.12a6.35,6.35,0,0,0-8.54,0,1.45,1.45,0,1,0,2,2.14,3.44,3.44,0,0,1,4.62,0l.12.12a6.36,6.36,0,0,0,8.55,0l.2-.19a3.44,3.44,0,0,1,4.62,0l.12.11a6.33,6.33,0,0,0,8.33.17h0a3.42,3.42,0,0,1,4.61,0l.19.17a6.35,6.35,0,0,0,8.54,0l.51-.46a3.41,3.41,0,0,1,4.61,0l.33.3a1.45,1.45,0,0,0,2-2.14Z" transform="translate(0 0)"/><path class="cls-1" d="M56.41,21.67h0l.25-.12Z" transform="translate(0 0)"/><path class="cls-1" d="M47.21,27.09a2.55,2.55,0,0,1,.23-.24A12.1,12.1,0,0,1,50,22.41,13.23,13.23,0,0,0,47.21,27.09Z" transform="translate(0 0)"/><path class="cls-1" d="M50.61,21.74a20.77,20.77,0,0,1,2.62-2.21A18.65,18.65,0,0,0,50.61,21.74Z" transform="translate(0 0)"/><path class="cls-1" d="M56.68,21.55l2.81-1.24A23.43,23.43,0,0,0,56.68,21.55Z" transform="translate(0 0)"/><path class="cls-8" d="M24.33,19.6c2.76,5.52,8.82,12.86,13.9,15.26l10.2,18a5.11,5.11,0,0,0,6.35,2.46c2.3-1,2.89-3.68,1.78-5.89L47.59,32a7.83,7.83,0,0,1,0-4.35l-.23.24a13.35,13.35,0,0,1,2.79-4.68l.49-.54.13-.13a17.58,17.58,0,0,1,2.62-2.21,20.09,20.09,0,0,0-2.62,2.21l-.13.13-.49.54a12,12,0,0,0-2.56,4.44c1.64-1.57,6.65-4,9-5.17h0l.28-.12a23.63,23.63,0,0,1,2.81-1.24l-2.81,1.24-.25.12c.48.13,13.93,3.66,15.1,5l6.38,8.09.29,5.92c.43,5.68,6.16,6.09,6.48,4.56l.19-12.89L77.93,21.19s-13.78-9.74-13.69-9.83S47.78,3.8,41.11.77H30.19a29.87,29.87,0,0,0-14,3.49L21,10Z" transform="translate(0 0)"/><path class="cls-9" d="M84.66,40.14l-2.44-.09c-.28,3,.89,4.73,2.42,4.72,0,0,.11-3,0-4.63Z" transform="translate(0 0)"/><path class="cls-10" d="M54.07,47.92l-4.86,2.37c.67,1.26,2.31,3.62,4.47,2.72,2.62-1.08,1.19-3.59.39-5.09Z" transform="translate(0 0)"/></svg>